# xmcd CD database file
#
# Track frame offsets:
#	150
#	7673
#	26813
#	45350
#	69793
#	88455
#	109110
#	133438
#	152665
#	169858
#
# Disc length: 2615 seconds
#
# Revision: 0
# Processed by: cddbd v1.5PL3 Copyright (c) Steve Scherf et al.
# Submitted via: CDex 1.50
#
DISCID=7a0a350a
DTITLE=島田奈美 - EVERYTIME I LOOK AT YOU
DYEAR=1988
DGENRE=JPop
TTITLE0=HEART BEAT
TTITLE1=TOKYO REFRESH
TTITLE2=HERE I GO AGAIN
TTITLE3=WHERE IS LOVE?
TTITLE4=WHY DON'T YOU CATCH ME!
TTITLE5=SUN SHOWER
TTITLE6=BAISER
TTITLE7=世界一幸せなカップル
TTITLE8=I'M ANGRY!
TTITLE9=STILL SINGING TO MY HEART
EXTD=YEAR: 1988/12/10
EXTT0=
EXTT1=
EXTT2=
EXTT3=
EXTT4=
EXTT5=
EXTT6=
EXTT7=
EXTT8=
EXTT9=
PLAYORDER=
